<svg xmlns="http://www.w3.org/2000/svg" version="1.1" xmlns:xlink="http://www.w3.org/1999/xlink" xmlns:svgjs="http://svgjs.dev/svgjs" viewBox="0 0 800 800"><g><circle r="42.5" cx="0" cy="0" fill="hsl(250, 75%, 50%)"></circle><circle r="42.5" cx="0" cy="85" fill="hsl(250, 75%, 50%)"></circle><circle r="42.5" cx="0" cy="170" fill="hsl(250, 75%, 50%)"></circle><circle r="42.5" cx="0" cy="255" fill="hsl(250, 75%, 50%)"></circle><circle r="42.5" cx="0" cy="340" fill="hsl(250, 75%, 50%)"></circle><circle r="42.5" cx="0" cy="425" fill="hsl(250, 75%, 50%)"></circle><circle r="42.5" cx="0" cy="510" fill="hsl(252, 75%, 50%)"></circle><circle r="42.5" cx="0" cy="595" fill="hsl(253, 75%, 50%)"></circle><circle r="42.5" cx="0" cy="680" fill="hsl(256, 75%, 50%)"></circle><circle r="42.5" cx="0" cy="765" fill="hsl(259, 75%, 50%)"></circle><circle r="42.5" cx="0" cy="850" fill="hsl(259, 75%, 50%)"></circle><circle r="42.5" cx="85" cy="0" fill="hsl(261, 75%, 50%)"></circle><circle r="42.5" cx="85" cy="85" fill="hsl(261, 75%, 50%)"></circle><circle r="42.5" cx="85" cy="170" fill="hsl(261, 75%, 50%)"></circle><circle r="42.5" cx="85" cy="255" fill="hsl(260, 75%, 50%)"></circle><circle r="42.5" cx="85" cy="340" fill="hsl(259, 75%, 50%)"></circle><circle r="42.5" cx="85" cy="425" fill="hsl(258, 75%, 50%)"></circle><circle r="42.5" cx="85" cy="510" fill="hsl(258, 75%, 50%)"></circle><circle r="42.5" cx="85" cy="595" fill="hsl(258, 75%, 50%)"></circle><circle r="42.5" cx="85" cy="680" fill="hsl(258, 75%, 50%)"></circle><circle r="42.5" cx="85" cy="765" fill="hsl(259, 75%, 50%)"></circle><circle r="42.5" cx="85" cy="850" fill="hsl(259, 75%, 50%)"></circle><circle r="42.5" cx="170" cy="0" fill="hsl(282, 75%, 50%)"></circle><circle r="42.5" cx="170" cy="85" fill="hsl(282, 75%, 50%)"></circle><circle r="42.5" cx="170" cy="170" fill="hsl(280, 75%, 50%)"></circle><circle r="42.5" cx="170" cy="255" fill="hsl(278, 75%, 50%)"></circle><circle r="42.5" cx="170" cy="340" fill="hsl(276, 75%, 50%)"></circle><circle r="42.5" cx="170" cy="425" fill="hsl(272, 75%, 50%)"></circle><circle r="42.5" cx="170" cy="510" fill="hsl(268, 75%, 50%)"></circle><circle r="42.5" cx="170" cy="595" fill="hsl(266, 75%, 50%)"></circle><circle r="42.5" cx="170" cy="680" fill="hsl(262, 75%, 50%)"></circle><circle r="42.5" cx="170" cy="765" fill="hsl(258, 75%, 50%)"></circle><circle r="42.5" cx="170" cy="850" fill="hsl(258, 75%, 50%)"></circle><circle r="42.5" cx="255" cy="0" fill="hsl(299, 75%, 50%)"></circle><circle r="42.5" cx="255" cy="85" fill="hsl(299, 75%, 50%)"></circle><circle r="42.5" cx="255" cy="170" fill="hsl(297, 75%, 50%)"></circle><circle r="42.5" cx="255" cy="255" fill="hsl(292, 75%, 50%)"></circle><circle r="42.5" cx="255" cy="340" fill="hsl(290, 75%, 50%)"></circle><circle r="42.5" cx="255" cy="425" fill="hsl(282, 75%, 50%)"></circle><circle r="42.5" cx="255" cy="510" fill="hsl(274, 75%, 50%)"></circle><circle r="42.5" cx="255" cy="595" fill="hsl(270, 75%, 50%)"></circle><circle r="42.5" cx="255" cy="680" fill="hsl(263, 75%, 50%)"></circle><circle r="42.5" cx="255" cy="765" fill="hsl(256, 75%, 50%)"></circle><circle r="42.5" cx="255" cy="850" fill="hsl(256, 75%, 50%)"></circle><circle r="42.5" cx="340" cy="0" fill="hsl(305, 75%, 50%)"></circle><circle r="42.5" cx="340" cy="85" fill="hsl(305, 75%, 50%)"></circle><circle r="42.5" cx="340" cy="170" fill="hsl(303, 75%, 50%)"></circle><circle r="42.5" cx="340" cy="255" fill="hsl(297, 75%, 50%)"></circle><circle r="42.5" cx="340" cy="340" fill="hsl(294, 75%, 50%)"></circle><circle r="42.5" cx="340" cy="425" fill="hsl(286, 75%, 50%)"></circle><circle r="42.5" cx="340" cy="510" fill="hsl(276, 75%, 50%)"></circle><circle r="42.5" cx="340" cy="595" fill="hsl(271, 75%, 50%)"></circle><circle r="42.5" cx="340" cy="680" fill="hsl(262, 75%, 50%)"></circle><circle r="42.5" cx="340" cy="765" fill="hsl(255, 75%, 50%)"></circle><circle r="42.5" cx="340" cy="850" fill="hsl(255, 75%, 50%)"></circle><circle r="42.5" cx="425" cy="0" fill="hsl(314, 75%, 50%)"></circle><circle r="42.5" cx="425" cy="85" fill="hsl(313, 75%, 50%)"></circle><circle r="42.5" cx="425" cy="170" fill="hsl(310, 75%, 50%)"></circle><circle r="42.5" cx="425" cy="255" fill="hsl(303, 75%, 50%)"></circle><circle r="42.5" cx="425" cy="340" fill="hsl(298, 75%, 50%)"></circle><circle r="42.5" cx="425" cy="425" fill="hsl(287, 75%, 50%)"></circle><circle r="42.5" cx="425" cy="510" fill="hsl(274, 75%, 50%)"></circle><circle r="42.5" cx="425" cy="595" fill="hsl(268, 75%, 50%)"></circle><circle r="42.5" cx="425" cy="680" fill="hsl(257, 75%, 50%)"></circle><circle r="42.5" cx="425" cy="765" fill="hsl(249, 75%, 50%)"></circle><circle r="42.5" cx="425" cy="850" fill="hsl(249, 75%, 50%)"></circle><circle r="42.5" cx="510" cy="0" fill="hsl(317, 75%, 50%)"></circle><circle r="42.5" cx="510" cy="85" fill="hsl(316, 75%, 50%)"></circle><circle r="42.5" cx="510" cy="170" fill="hsl(310, 75%, 50%)"></circle><circle r="42.5" cx="510" cy="255" fill="hsl(301, 75%, 50%)"></circle><circle r="42.5" cx="510" cy="340" fill="hsl(295, 75%, 50%)"></circle><circle r="42.5" cx="510" cy="425" fill="hsl(281, 75%, 50%)"></circle><circle r="42.5" cx="510" cy="510" fill="hsl(267, 75%, 50%)"></circle><circle r="42.5" cx="510" cy="595" fill="hsl(260, 75%, 50%)"></circle><circle r="42.5" cx="510" cy="680" fill="hsl(248, 75%, 50%)"></circle><circle r="42.5" cx="510" cy="765" fill="hsl(240, 75%, 50%)"></circle><circle r="42.5" cx="510" cy="850" fill="hsl(240, 75%, 50%)"></circle><circle r="42.5" cx="595" cy="0" fill="hsl(317, 75%, 50%)"></circle><circle r="42.5" cx="595" cy="85" fill="hsl(315, 75%, 50%)"></circle><circle r="42.5" cx="595" cy="170" fill="hsl(308, 75%, 50%)"></circle><circle r="42.5" cx="595" cy="255" fill="hsl(298, 75%, 50%)"></circle><circle r="42.5" cx="595" cy="340" fill="hsl(291, 75%, 50%)"></circle><circle r="42.5" cx="595" cy="425" fill="hsl(276, 75%, 50%)"></circle><circle r="42.5" cx="595" cy="510" fill="hsl(261, 75%, 50%)"></circle><circle r="42.5" cx="595" cy="595" fill="hsl(254, 75%, 50%)"></circle><circle r="42.5" cx="595" cy="680" fill="hsl(242, 75%, 50%)"></circle><circle r="42.5" cx="595" cy="765" fill="hsl(235, 75%, 50%)"></circle><circle r="42.5" cx="595" cy="850" fill="hsl(235, 75%, 50%)"></circle><circle r="42.5" cx="680" cy="0" fill="hsl(315, 75%, 50%)"></circle><circle r="42.5" cx="680" cy="85" fill="hsl(312, 75%, 50%)"></circle><circle r="42.5" cx="680" cy="170" fill="hsl(302, 75%, 50%)"></circle><circle r="42.5" cx="680" cy="255" fill="hsl(288, 75%, 50%)"></circle><circle r="42.5" cx="680" cy="340" fill="hsl(280, 75%, 50%)"></circle><circle r="42.5" cx="680" cy="425" fill="hsl(264, 75%, 50%)"></circle><circle r="42.5" cx="680" cy="510" fill="hsl(247, 75%, 50%)"></circle><circle r="42.5" cx="680" cy="595" fill="hsl(240, 75%, 50%)"></circle><circle r="42.5" cx="680" cy="680" fill="hsl(229, 75%, 50%)"></circle><circle r="42.5" cx="680" cy="765" fill="hsl(223, 75%, 50%)"></circle><circle r="42.5" cx="680" cy="850" fill="hsl(223, 75%, 50%)"></circle><circle r="42.5" cx="765" cy="0" fill="hsl(311, 75%, 50%)"></circle><circle r="42.5" cx="765" cy="85" fill="hsl(306, 75%, 50%)"></circle><circle r="42.5" cx="765" cy="170" fill="hsl(294, 75%, 50%)"></circle><circle r="42.5" cx="765" cy="255" fill="hsl(277, 75%, 50%)"></circle><circle r="42.5" cx="765" cy="340" fill="hsl(268, 75%, 50%)"></circle><circle r="42.5" cx="765" cy="425" fill="hsl(249, 75%, 50%)"></circle><circle r="42.5" cx="765" cy="510" fill="hsl(232, 75%, 50%)"></circle><circle r="42.5" cx="765" cy="595" fill="hsl(225, 75%, 50%)"></circle><circle r="42.5" cx="765" cy="680" fill="hsl(215, 75%, 50%)"></circle><circle r="42.5" cx="765" cy="765" fill="hsl(211, 75%, 50%)"></circle><circle r="42.5" cx="765" cy="850" fill="hsl(211, 75%, 50%)"></circle><circle r="42.5" cx="850" cy="0" fill="hsl(311, 75%, 50%)"></circle><circle r="42.5" cx="850" cy="85" fill="hsl(306, 75%, 50%)"></circle><circle r="42.5" cx="850" cy="170" fill="hsl(294, 75%, 50%)"></circle><circle r="42.5" cx="850" cy="255" fill="hsl(277, 75%, 50%)"></circle><circle r="42.5" cx="850" cy="340" fill="hsl(268, 75%, 50%)"></circle><circle r="42.5" cx="850" cy="425" fill="hsl(249, 75%, 50%)"></circle><circle r="42.5" cx="850" cy="510" fill="hsl(232, 75%, 50%)"></circle><circle r="42.5" cx="850" cy="595" fill="hsl(225, 75%, 50%)"></circle><circle r="42.5" cx="850" cy="680" fill="hsl(215, 75%, 50%)"></circle><circle r="42.5" cx="850" cy="765" fill="hsl(211, 75%, 50%)"></circle><circle r="42.5" cx="850" cy="850" fill="hsl(211, 75%, 50%)"></circle><circle r="42.5" cx="935" cy="0" fill="hsl(311, 75%, 50%)"></circle><circle r="42.5" cx="935" cy="85" fill="hsl(306, 75%, 50%)"></circle><circle r="42.5" cx="935" cy="170" fill="hsl(294, 75%, 50%)"></circle><circle r="42.5" cx="935" cy="255" fill="hsl(277, 75%, 50%)"></circle><circle r="42.5" cx="935" cy="340" fill="hsl(268, 75%, 50%)"></circle><circle r="42.5" cx="935" cy="425" fill="hsl(249, 75%, 50%)"></circle><circle r="42.5" cx="935" cy="510" fill="hsl(232, 75%, 50%)"></circle><circle r="42.5" cx="935" cy="595" fill="hsl(225, 75%, 50%)"></circle><circle r="42.5" cx="935" cy="680" fill="hsl(215, 75%, 50%)"></circle><circle r="42.5" cx="935" cy="765" fill="hsl(211, 75%, 50%)"></circle><circle r="42.5" cx="935" cy="850" fill="hsl(211, 75%, 50%)"></circle></g><g transform="matrix(1,0,0,1,-42.5,0)"><circle r="42.5" cx="0" cy="42.5" fill="hsl(250, 75%, 50%)"></circle><circle r="42.5" cx="0" cy="127.5" fill="hsl(250, 75%, 50%)"></circle><circle r="42.5" cx="0" cy="212.5" fill="hsl(250, 75%, 50%)"></circle><circle r="42.5" cx="0" cy="297.5" fill="hsl(250, 75%, 50%)"></circle><circle r="42.5" cx="0" cy="382.5" fill="hsl(250, 75%, 50%)"></circle><circle r="42.5" cx="0" cy="467.5" fill="hsl(251, 75%, 50%)"></circle><circle r="42.5" cx="0" cy="552.5" fill="hsl(253, 75%, 50%)"></circle><circle r="42.5" cx="0" cy="637.5" fill="hsl(255, 75%, 50%)"></circle><circle r="42.5" cx="0" cy="722.5" fill="hsl(258, 75%, 50%)"></circle><circle r="42.5" cx="0" cy="807.5" fill="hsl(259, 75%, 50%)"></circle><circle r="42.5" cx="0" cy="892.5" fill="hsl(259, 75%, 50%)"></circle><circle r="42.5" cx="85" cy="42.5" fill="hsl(261, 75%, 50%)"></circle><circle r="42.5" cx="85" cy="127.5" fill="hsl(261, 75%, 50%)"></circle><circle r="42.5" cx="85" cy="212.5" fill="hsl(260, 75%, 50%)"></circle><circle r="42.5" cx="85" cy="297.5" fill="hsl(260, 75%, 50%)"></circle><circle r="42.5" cx="85" cy="382.5" fill="hsl(259, 75%, 50%)"></circle><circle r="42.5" cx="85" cy="467.5" fill="hsl(258, 75%, 50%)"></circle><circle r="42.5" cx="85" cy="552.5" fill="hsl(258, 75%, 50%)"></circle><circle r="42.5" cx="85" cy="637.5" fill="hsl(258, 75%, 50%)"></circle><circle r="42.5" cx="85" cy="722.5" fill="hsl(259, 75%, 50%)"></circle><circle r="42.5" cx="85" cy="807.5" fill="hsl(259, 75%, 50%)"></circle><circle r="42.5" cx="85" cy="892.5" fill="hsl(259, 75%, 50%)"></circle><circle r="42.5" cx="170" cy="42.5" fill="hsl(282, 75%, 50%)"></circle><circle r="42.5" cx="170" cy="127.5" fill="hsl(281, 75%, 50%)"></circle><circle r="42.5" cx="170" cy="212.5" fill="hsl(279, 75%, 50%)"></circle><circle r="42.5" cx="170" cy="297.5" fill="hsl(278, 75%, 50%)"></circle><circle r="42.5" cx="170" cy="382.5" fill="hsl(274, 75%, 50%)"></circle><circle r="42.5" cx="170" cy="467.5" fill="hsl(270, 75%, 50%)"></circle><circle r="42.5" cx="170" cy="552.5" fill="hsl(266, 75%, 50%)"></circle><circle r="42.5" cx="170" cy="637.5" fill="hsl(264, 75%, 50%)"></circle><circle r="42.5" cx="170" cy="722.5" fill="hsl(260, 75%, 50%)"></circle><circle r="42.5" cx="170" cy="807.5" fill="hsl(258, 75%, 50%)"></circle><circle r="42.5" cx="170" cy="892.5" fill="hsl(258, 75%, 50%)"></circle><circle r="42.5" cx="255" cy="42.5" fill="hsl(299, 75%, 50%)"></circle><circle r="42.5" cx="255" cy="127.5" fill="hsl(298, 75%, 50%)"></circle><circle r="42.5" cx="255" cy="212.5" fill="hsl(295, 75%, 50%)"></circle><circle r="42.5" cx="255" cy="297.5" fill="hsl(292, 75%, 50%)"></circle><circle r="42.5" cx="255" cy="382.5" fill="hsl(286, 75%, 50%)"></circle><circle r="42.5" cx="255" cy="467.5" fill="hsl(278, 75%, 50%)"></circle><circle r="42.5" cx="255" cy="552.5" fill="hsl(270, 75%, 50%)"></circle><circle r="42.5" cx="255" cy="637.5" fill="hsl(266, 75%, 50%)"></circle><circle r="42.5" cx="255" cy="722.5" fill="hsl(259, 75%, 50%)"></circle><circle r="42.5" cx="255" cy="807.5" fill="hsl(256, 75%, 50%)"></circle><circle r="42.5" cx="255" cy="892.5" fill="hsl(256, 75%, 50%)"></circle><circle r="42.5" cx="340" cy="42.5" fill="hsl(305, 75%, 50%)"></circle><circle r="42.5" cx="340" cy="127.5" fill="hsl(304, 75%, 50%)"></circle><circle r="42.5" cx="340" cy="212.5" fill="hsl(300, 75%, 50%)"></circle><circle r="42.5" cx="340" cy="297.5" fill="hsl(297, 75%, 50%)"></circle><circle r="42.5" cx="340" cy="382.5" fill="hsl(290, 75%, 50%)"></circle><circle r="42.5" cx="340" cy="467.5" fill="hsl(281, 75%, 50%)"></circle><circle r="42.5" cx="340" cy="552.5" fill="hsl(271, 75%, 50%)"></circle><circle r="42.5" cx="340" cy="637.5" fill="hsl(266, 75%, 50%)"></circle><circle r="42.5" cx="340" cy="722.5" fill="hsl(258, 75%, 50%)"></circle><circle r="42.5" cx="340" cy="807.5" fill="hsl(255, 75%, 50%)"></circle><circle r="42.5" cx="340" cy="892.5" fill="hsl(255, 75%, 50%)"></circle><circle r="42.5" cx="425" cy="42.5" fill="hsl(314, 75%, 50%)"></circle><circle r="42.5" cx="425" cy="127.5" fill="hsl(312, 75%, 50%)"></circle><circle r="42.5" cx="425" cy="212.5" fill="hsl(306, 75%, 50%)"></circle><circle r="42.5" cx="425" cy="297.5" fill="hsl(303, 75%, 50%)"></circle><circle r="42.5" cx="425" cy="382.5" fill="hsl(293, 75%, 50%)"></circle><circle r="42.5" cx="425" cy="467.5" fill="hsl(281, 75%, 50%)"></circle><circle r="42.5" cx="425" cy="552.5" fill="hsl(268, 75%, 50%)"></circle><circle r="42.5" cx="425" cy="637.5" fill="hsl(262, 75%, 50%)"></circle><circle r="42.5" cx="425" cy="722.5" fill="hsl(253, 75%, 50%)"></circle><circle r="42.5" cx="425" cy="807.5" fill="hsl(249, 75%, 50%)"></circle><circle r="42.5" cx="425" cy="892.5" fill="hsl(249, 75%, 50%)"></circle><circle r="42.5" cx="510" cy="42.5" fill="hsl(317, 75%, 50%)"></circle><circle r="42.5" cx="510" cy="127.5" fill="hsl(313, 75%, 50%)"></circle><circle r="42.5" cx="510" cy="212.5" fill="hsl(306, 75%, 50%)"></circle><circle r="42.5" cx="510" cy="297.5" fill="hsl(301, 75%, 50%)"></circle><circle r="42.5" cx="510" cy="382.5" fill="hsl(288, 75%, 50%)"></circle><circle r="42.5" cx="510" cy="467.5" fill="hsl(274, 75%, 50%)"></circle><circle r="42.5" cx="510" cy="552.5" fill="hsl(260, 75%, 50%)"></circle><circle r="42.5" cx="510" cy="637.5" fill="hsl(254, 75%, 50%)"></circle><circle r="42.5" cx="510" cy="722.5" fill="hsl(243, 75%, 50%)"></circle><circle r="42.5" cx="510" cy="807.5" fill="hsl(240, 75%, 50%)"></circle><circle r="42.5" cx="510" cy="892.5" fill="hsl(240, 75%, 50%)"></circle><circle r="42.5" cx="595" cy="42.5" fill="hsl(317, 75%, 50%)"></circle><circle r="42.5" cx="595" cy="127.5" fill="hsl(312, 75%, 50%)"></circle><circle r="42.5" cx="595" cy="212.5" fill="hsl(304, 75%, 50%)"></circle><circle r="42.5" cx="595" cy="297.5" fill="hsl(298, 75%, 50%)"></circle><circle r="42.5" cx="595" cy="382.5" fill="hsl(284, 75%, 50%)"></circle><circle r="42.5" cx="595" cy="467.5" fill="hsl(269, 75%, 50%)"></circle><circle r="42.5" cx="595" cy="552.5" fill="hsl(254, 75%, 50%)"></circle><circle r="42.5" cx="595" cy="637.5" fill="hsl(248, 75%, 50%)"></circle><circle r="42.5" cx="595" cy="722.5" fill="hsl(238, 75%, 50%)"></circle><circle r="42.5" cx="595" cy="807.5" fill="hsl(235, 75%, 50%)"></circle><circle r="42.5" cx="595" cy="892.5" fill="hsl(235, 75%, 50%)"></circle><circle r="42.5" cx="680" cy="42.5" fill="hsl(315, 75%, 50%)"></circle><circle r="42.5" cx="680" cy="127.5" fill="hsl(308, 75%, 50%)"></circle><circle r="42.5" cx="680" cy="212.5" fill="hsl(296, 75%, 50%)"></circle><circle r="42.5" cx="680" cy="297.5" fill="hsl(288, 75%, 50%)"></circle><circle r="42.5" cx="680" cy="382.5" fill="hsl(272, 75%, 50%)"></circle><circle r="42.5" cx="680" cy="467.5" fill="hsl(255, 75%, 50%)"></circle><circle r="42.5" cx="680" cy="552.5" fill="hsl(240, 75%, 50%)"></circle><circle r="42.5" cx="680" cy="637.5" fill="hsl(234, 75%, 50%)"></circle><circle r="42.5" cx="680" cy="722.5" fill="hsl(225, 75%, 50%)"></circle><circle r="42.5" cx="680" cy="807.5" fill="hsl(223, 75%, 50%)"></circle><circle r="42.5" cx="680" cy="892.5" fill="hsl(223, 75%, 50%)"></circle><circle r="42.5" cx="765" cy="42.5" fill="hsl(311, 75%, 50%)"></circle><circle r="42.5" cx="765" cy="127.5" fill="hsl(301, 75%, 50%)"></circle><circle r="42.5" cx="765" cy="212.5" fill="hsl(286, 75%, 50%)"></circle><circle r="42.5" cx="765" cy="297.5" fill="hsl(277, 75%, 50%)"></circle><circle r="42.5" cx="765" cy="382.5" fill="hsl(258, 75%, 50%)"></circle><circle r="42.5" cx="765" cy="467.5" fill="hsl(240, 75%, 50%)"></circle><circle r="42.5" cx="765" cy="552.5" fill="hsl(225, 75%, 50%)"></circle><circle r="42.5" cx="765" cy="637.5" fill="hsl(219, 75%, 50%)"></circle><circle r="42.5" cx="765" cy="722.5" fill="hsl(212, 75%, 50%)"></circle><circle r="42.5" cx="765" cy="807.5" fill="hsl(211, 75%, 50%)"></circle><circle r="42.5" cx="765" cy="892.5" fill="hsl(211, 75%, 50%)"></circle><circle r="42.5" cx="850" cy="42.5" fill="hsl(311, 75%, 50%)"></circle><circle r="42.5" cx="850" cy="127.5" fill="hsl(301, 75%, 50%)"></circle><circle r="42.5" cx="850" cy="212.5" fill="hsl(286, 75%, 50%)"></circle><circle r="42.5" cx="850" cy="297.5" fill="hsl(277, 75%, 50%)"></circle><circle r="42.5" cx="850" cy="382.5" fill="hsl(258, 75%, 50%)"></circle><circle r="42.5" cx="850" cy="467.5" fill="hsl(240, 75%, 50%)"></circle><circle r="42.5" cx="850" cy="552.5" fill="hsl(225, 75%, 50%)"></circle><circle r="42.5" cx="850" cy="637.5" fill="hsl(219, 75%, 50%)"></circle><circle r="42.5" cx="850" cy="722.5" fill="hsl(212, 75%, 50%)"></circle><circle r="42.5" cx="850" cy="807.5" fill="hsl(211, 75%, 50%)"></circle><circle r="42.5" cx="850" cy="892.5" fill="hsl(211, 75%, 50%)"></circle><circle r="42.5" cx="935" cy="42.5" fill="hsl(311, 75%, 50%)"></circle><circle r="42.5" cx="935" cy="127.5" fill="hsl(301, 75%, 50%)"></circle><circle r="42.5" cx="935" cy="212.5" fill="hsl(286, 75%, 50%)"></circle><circle r="42.5" cx="935" cy="297.5" fill="hsl(277, 75%, 50%)"></circle><circle r="42.5" cx="935" cy="382.5" fill="hsl(258, 75%, 50%)"></circle><circle r="42.5" cx="935" cy="467.5" fill="hsl(240, 75%, 50%)"></circle><circle r="42.5" cx="935" cy="552.5" fill="hsl(225, 75%, 50%)"></circle><circle r="42.5" cx="935" cy="637.5" fill="hsl(219, 75%, 50%)"></circle><circle r="42.5" cx="935" cy="722.5" fill="hsl(212, 75%, 50%)"></circle><circle r="42.5" cx="935" cy="807.5" fill="hsl(211, 75%, 50%)"></circle><circle r="42.5" cx="935" cy="892.5" fill="hsl(211, 75%, 50%)"></circle></g></svg>